<svg width="196" height="101" viewBox="0 0 196 101" fill="none" xmlns="http://www.w3.org/2000/svg">
<path d="M38.3085 39.0705H17.8034L13.9933 48.4917H0L21.4056 0H34.9141L56.389 48.4917H42.1186L38.3085 39.0705ZM34.2906 28.9565L28.0559 13.4391L21.8213 28.9565H34.2906Z" fill="#FFC71A"/>
<path d="M60.2775 0H73.9938V37.6157H97.1312V48.4917H60.2775V0Z" fill="#FFC71A"/>
<path d="M141.491 37.8928V48.4917H102.559V0H140.59V10.5989H116.137V18.7732H137.681V29.0258H116.137V37.8928H141.491Z" fill="#FFC71A"/>
<path d="M179.316 48.4917L169.271 33.4593L159.365 48.4917H143.709L161.374 23.9688L144.471 0H159.919L169.617 13.9933L179.177 0H194.002L177.099 23.4146L195.11 48.4917H179.316Z" fill="#FFC71A"/>
<path d="M49.1764 100.984C45.2508 100.984 41.4408 100.499 37.7462 99.5293C34.0516 98.5595 31.0497 97.2664 28.7406 95.65L33.2434 85.536C35.4139 86.9676 37.9309 88.1222 40.7942 88.9997C43.6575 89.8771 46.4747 90.3159 49.2456 90.3159C54.5105 90.3159 57.1429 88.9997 57.1429 86.3673C57.1429 84.9818 56.3809 83.9658 54.8568 83.3192C53.379 82.6265 50.9775 81.9106 47.6523 81.1717C44.0039 80.3866 40.9559 79.5553 38.5082 78.6779C36.0605 77.7542 33.9592 76.2995 32.2043 74.3136C30.4493 72.3278 29.5718 69.6492 29.5718 66.2778C29.5718 63.3221 30.38 60.6666 31.9964 58.3113C33.6128 55.9098 36.0143 54.0163 39.2009 52.6309C42.4337 51.2454 46.3823 50.5526 51.0468 50.5526C54.2334 50.5526 57.3738 50.9221 60.468 51.661C63.5623 52.3538 66.287 53.3929 68.6423 54.7784L64.4166 64.9616C59.7984 62.4678 55.3187 61.2208 50.9775 61.2208C48.2527 61.2208 46.2669 61.6365 45.0199 62.4678C43.773 63.2529 43.1495 64.292 43.1495 65.5851C43.1495 66.8782 43.8885 67.848 45.3663 68.4946C46.8441 69.1412 49.2226 69.8108 52.5015 70.5035C56.1961 71.2886 59.2442 72.143 61.6457 73.0667C64.0934 73.9441 66.1947 75.3758 67.9496 77.3617C69.7507 79.3013 70.6513 81.9568 70.6513 85.3282C70.6513 88.2377 69.8431 90.8701 68.2267 93.2254C66.6103 95.5807 64.1857 97.4742 60.9529 98.9058C57.7202 100.291 53.7946 100.984 49.1764 100.984Z" fill="#FFC71A"/>
<path d="M95.6911 82.4187L90.5648 87.8913V100.014H76.9871V51.5225H90.5648V71.6812L109.338 51.5225H124.44L104.627 72.9974L125.479 100.014H109.546L95.6911 82.4187Z" fill="#FFC71A"/>
<path d="M151.402 82.6265V100.014H137.686V82.4187L119.19 51.5225H133.668L145.168 70.7806L156.667 51.5225H169.968L151.402 82.6265Z" fill="#FFC71A"/>
</svg>
