<svg width="20" height="21" viewBox="0 0 20 21" fill="none" xmlns="http://www.w3.org/2000/svg">
<g clip-path="url(#clip0_162_11)">
<path fill-rule="evenodd" clip-rule="evenodd" d="M13.4299 4.73047H6.57013C5.47535 4.73047 4.58447 5.63912 4.58447 6.75586V13.7528C4.58447 14.8697 5.47535 15.7784 6.57013 15.7784H13.4299C14.5248 15.7784 15.4157 14.8697 15.4157 13.7528V6.75586C15.4157 5.63917 14.5248 4.73047 13.4299 4.73047ZM9.99986 13.8913C8.03398 13.8913 6.43436 12.2597 6.43436 10.2542C6.43436 8.249 8.03398 6.61738 9.99986 6.61738C11.966 6.61738 13.5656 8.249 13.5656 10.2542C13.5656 12.2597 11.966 13.8913 9.99986 13.8913ZM13.6803 7.36944C13.2149 7.36944 12.8364 6.9834 12.8364 6.50893C12.8364 6.0344 13.2149 5.64837 13.6803 5.64837C14.1455 5.64837 14.5239 6.0344 14.5239 6.50893C14.5239 6.98346 14.1455 7.36944 13.6803 7.36944Z" fill="#FFC71A"/>
<path fill-rule="evenodd" clip-rule="evenodd" d="M9.99998 8.15234C8.86509 8.15234 7.94092 9.09457 7.94092 10.2522C7.94092 11.4102 8.86509 12.3527 9.99998 12.3527C11.1353 12.3527 12.0588 11.4102 12.0588 10.2522C12.0588 9.09457 11.1353 8.15234 9.99998 8.15234Z" fill="#FFC71A"/>
<path fill-rule="evenodd" clip-rule="evenodd" d="M0 0.0527344V20.453H20V0.0527344H0ZM16.9222 13.7513C16.9222 15.7158 15.3558 17.3136 13.4299 17.3136H6.57017C4.6444 17.3136 3.0778 15.7158 3.0778 13.7513V6.75438C3.0778 4.79007 4.6444 3.19213 6.57017 3.19213H13.4299C15.3558 3.19213 16.9222 4.79007 16.9222 6.75438V13.7513Z" fill="#FFC71A"/>
</g>
<defs>
<clipPath id="clip0_162_11">
<rect width="20" height="20.4002" fill="white" transform="translate(0 0.0527344)"/>
</clipPath>
</defs>
</svg>
