<svg width="32" height="32" viewBox="0 0 32 32" fill="none" xmlns="http://www.w3.org/2000/svg">
<path d="M6.5 27.5C6.45266 27.4995 6.40559 27.4928 6.36 27.48C6.25614 27.4497 6.16491 27.3865 6.1 27.3C6.03509 27.2135 6 27.1082 6 27V17.2825H0.5C0.367392 17.2825 0.240215 17.2298 0.146447 17.1361C0.0526784 17.0423 0 16.9151 0 16.7825V5C0 4.86739 0.0526784 4.74021 0.146447 4.64645C0.240215 4.55268 0.367392 4.5 0.5 4.5H13C13.1326 4.5 13.2598 4.55268 13.3536 4.64645C13.4473 4.74021 13.5 4.86739 13.5 5V16.7725C13.5 16.8672 13.4731 16.96 13.4225 17.04L6.9225 27.2675C6.87739 27.3387 6.815 27.3974 6.74113 27.4381C6.66726 27.4787 6.58431 27.5 6.5 27.5ZM1 16.2725H6.5C6.63261 16.2725 6.75979 16.3252 6.85355 16.4189C6.94732 16.5127 7 16.6399 7 16.7725V25.2725L12.5 16.625V5.5H1V16.2725Z" fill="#FFC71A"/>
<path d="M25 27.5C24.9527 27.4995 24.9056 27.4928 24.86 27.48C24.7561 27.4497 24.6649 27.3865 24.6 27.3C24.5351 27.2135 24.5 27.1082 24.5 27V17.2825H19C18.8674 17.2825 18.7402 17.2298 18.6464 17.1361C18.5527 17.0423 18.5 16.9151 18.5 16.7825V5C18.5 4.86739 18.5527 4.74021 18.6464 4.64645C18.7402 4.55268 18.8674 4.5 19 4.5H31.5C31.6326 4.5 31.7598 4.55268 31.8536 4.64645C31.9473 4.74021 32 4.86739 32 5V16.7725C32 16.8672 31.9731 16.96 31.9225 17.04L25.4225 27.2675C25.3774 27.3387 25.315 27.3974 25.2411 27.4381C25.1673 27.4787 25.0843 27.5 25 27.5ZM19.5 16.2725H25C25.1326 16.2725 25.2598 16.3252 25.3536 16.4189C25.4473 16.5127 25.5 16.6399 25.5 16.7725V25.2725L31 16.625V5.5H19.5V16.2725Z" fill="#FFC71A"/>
</svg>
